<?xml version="1.0" encoding="UTF-8" standalone="no"?>
<svg
   xmlns:dc="http://purl.org/dc/elements/1.1/"
   xmlns:cc="http://creativecommons.org/ns#"
   xmlns:rdf="http://www.w3.org/1999/02/22-rdf-syntax-ns#"
   xmlns:svg="http://www.w3.org/2000/svg"
   xmlns="http://www.w3.org/2000/svg"
   xmlns:xlink="http://www.w3.org/1999/xlink"
   xmlns:sodipodi="http://sodipodi.sourceforge.net/DTD/sodipodi-0.dtd"
   xmlns:inkscape="http://www.inkscape.org/namespaces/inkscape"
   inkscape:version="1.0 (4035a4f, 2020-05-01)"
   sodipodi:docname="Flourish-Tree2.svg"
   xml:space="preserve"
   enable-background="new 2.5 1.8 1995.1 1496.3"
   viewBox="2.5 1.8 1995.1 1496.3"
   y="0px"
   x="0px"
   id="Layer_1"
   version="1.1"><metadata
   id="metadata19"><rdf:RDF><cc:Work
       rdf:about=""><dc:format>image/svg+xml</dc:format><dc:type
         rdf:resource="http://purl.org/dc/dcmitype/StillImage" /><dc:title></dc:title></cc:Work></rdf:RDF></metadata><defs
   id="defs17"><linearGradient
     id="linearGradient856"
     inkscape:collect="always"><stop
       id="stop852"
       offset="0"
       style="stop-color:#000000;stop-opacity:1;" /><stop
       id="stop854"
       offset="1"
       style="stop-color:#000000;stop-opacity:0;" /></linearGradient><radialGradient
     gradientUnits="userSpaceOnUse"
     gradientTransform="matrix(1,0,0,0.73478198,0,199.27699)"
     r="886.62544"
     fy="751.37048"
     fx="1000.7394"
     cy="751.37048"
     cx="1000.7394"
     id="radialGradient858"
     xlink:href="#linearGradient856"
     inkscape:collect="always" /><radialGradient
     gradientUnits="userSpaceOnUse"
     gradientTransform="matrix(1,0,0,0.73478198,0,199.27699)"
     r="886.62543"
     fy="751.37048"
     fx="1000.7394"
     cy="751.37048"
     cx="1000.7394"
     id="radialGradient882"
     xlink:href="#linearGradient856"
     inkscape:collect="always" /></defs><sodipodi:namedview
   inkscape:current-layer="Layer_1"
   inkscape:window-maximized="1"
   inkscape:window-y="23"
   inkscape:window-x="0"
   inkscape:cy="748.15"
   inkscape:cx="949.53957"
   inkscape:zoom="0.37491855"
   showgrid="false"
   id="namedview15"
   inkscape:window-height="1035"
   inkscape:window-width="1920"
   inkscape:pageshadow="2"
   inkscape:pageopacity="0"
   guidetolerance="10"
   gridtolerance="10"
   objecttolerance="10"
   borderopacity="1"
   bordercolor="#666666"
   pagecolor="#ffffff" />
<g
   id="_x23_ffffffff">
</g>
<g
   style="fill-opacity:1;fill:#5a5c5b;stroke:#000000;stroke-opacity:1"
   id="_x23_000000ff">
	<path
   style="stroke:#000000;stroke-opacity:1;fill-opacity:1;fill:#5a5c5b"
   id="path11"
   d="M1674.8,110.8c13.4-12.5,34.1-13.3,50.6-7c9.4,4.2,16.8,12.4,20.4,22   c2.2,7.4,1.8,15.7-1.5,22.7c-3,7.1-9.2,13.6-17,14.9c-6.1,1.8-12.7-0.2-17.8-3.5c-4.2-2.9-8.3-7.4-7.7-12.9   c-0.5-8.2,7.5-16.7,15.9-14c4.9,1,7.1,6.6,5.2,11c-0.8,0.7-1.5,1.5-2.2,2.2c-1.6-0.2-3.7,0.4-4.7-1.2c-1.5-1.4,0-3.3,0.3-4.9   c2-0.4,4-0.2,6,0c-1.2-4-6-5-9.7-5.2c-4.2,3-6.8,8.1-6.5,13.2c2.4,10.3,16.8,14.7,24.9,8.1c5.8-4.6,8.6-12,9.7-19.1   c0.3-7-3.3-13.7-8.4-18.3c-5.4-4.7-11.9-8.5-19.3-8.8c-10.8-1.3-21.7,3.2-29.2,10.9c-11.6,12.5-16.9,31.1-12,47.7   c0.7,1.9,0.7,4.8,2.9,5.6c16.7,6.6,32.5,15.5,46.2,27c13.5,11.4,25.3,25.2,32.8,41.3c7.7,15.7,10.9,33.3,11.3,50.6   c-0.5,23.6-6,46.9-15,68.7c-11.8,28-28.6,54.7-52.7,73.6c8.8,6.1,17.2,12.8,24.5,20.7c7.9,8.4,12.9,19.1,16.2,30.1   c1.7,6.4,3.2,13,3,19.7c8.3,7.7,18.6,13.2,29.7,15.3c16.6,3,35.1,0.1,48.3-11c12.3-10.3,18.4-28.1,13.5-43.6   c-2.3-7.9-6.6-15.9-13.9-20.2c-6.7-4.2-14.9-4.1-22.4-3c-6.3,1.2-12.5,4.6-15.7,10.3c-3.9,6.7-3.3,15.6,0.9,22   c3.8,5.5,11.6,6.4,17.5,4.4c3.6-0.8,6.5-4.3,6-8.1c0-2.9-0.3-6.8-3.8-7.5c-0.1,1.4-0.1,2.9-0.1,4.4c-0.8,0.7-1.6,1.5-2.4,2.2   c-2.2,0.2-4.3-0.4-5.8-2.1c0.2-2.3,0.4-5.2,2.5-6.6c4.5-1.7,10.6,0.2,12.2,5.1c3.2,8.8-4.6,18.5-13.7,18.6c-6,0.8-12.5-1-16.2-6   c-7.6-10.6-6.8-26.6,2.3-36.1c6.2-6.9,15.8-9.7,24.9-9.3c8.2-0.3,16.4,2.4,22.7,7.5c9.6,7.4,15.4,18.9,17.4,30.6   c7.3-3.7,16.1-4.1,23.8-1.7c7.2,2.2,11.6,9.2,12.7,16.3c2.1,8.3-3.2,18.6-12.1,19.9c-6.4,1.4-13.9-2.9-14.2-9.9   c0.5-2.1,0.5-4.4,1.9-6.2c2.8-4.5,11.1-2.9,11.5,2.7c-0.2,0.7-0.7,2.2-1,3c-1.3,0.2-2.7,1.3-3.8,0.4c-2-0.4-0.6-2.6,0.2-3.5   c1,0.9,2,1.8,3,2.8c-0.2-1.9,0.8-4.6-1.6-5.5c-1.7-0.3-3.4-0.2-5.1-0.2c-3.2,2.6-4,7.7-1.2,10.9c4,3.9,11.4,4.2,15.1-0.4   c5.4-5.8,4.5-15.4-1.1-20.7c-7.7-7-20.4-6.7-28.2,0c-0.4,11.6-3.8,23.3-10,33.2c10,4.2,19.2,10.5,26.7,18.3   c12.2,11.7,22.1,26.7,25.1,43.5c2.7,15.8-2.4,32.2-12.2,44.7c-7,8.9-15.4,17.5-26.4,21.1c-9.4,3.3-19.7,4.1-29.4,1.5   c-9.4-2.5-17.7-8.7-22.9-17c-5.8-8.3-8.3-19.1-5-28.9c2.2-6.1,6.1-12,11.8-15.4c6.1-3.9,13.7-6.5,20.9-4.6   c10.3,3.4,17.2,16.9,11.1,26.7c-2.7,5.4-10.2,8.3-15.4,4.7c-3.1-1.8-5.2-5.8-3.4-9.2c1.7-2.4,5.6-3.9,7.4-0.7   c2.4,3.1-0.4,6.3-2.8,8.2c4.9,2,9.9-2.4,12.4-6.3c0.7-6.3-3.3-11.9-7.8-15.8c-5.3-4-12.4-2.3-17.7,0.9c-4.8,2.6-8.4,7.2-10.1,12.5   c-1.8,6.6-0.1,13.6,3.3,19.3c4.2,7.6,10.8,14.6,19.6,16.5c7.9,2.1,16.3,0.1,23.7-2.9c17.7-7,28.4-26.8,26.6-45.4   c-2.7-26.8-24-50.4-50.2-56.3c-16.4,10.3-36.9,11.4-55.5,7.6c-9.1-1.8-18-4.9-25.9-9.9c-5.4,19.6-20.8,35.5-39.3,43.4   c-14.4,6.2-31.7,4.2-44.6-4.6c-8.5-5.3-14.4-13.8-18.3-22.9c-3.6-8.3-4.4-18.2-0.4-26.4c3.8-7.5,10.7-13,18.3-16.4   c6.8-2.3,14.6-2.2,21,1.3c6.4,2.9,10.7,9.5,11.3,16.5c-0.4,6.2-4.2,12.5-10.1,14.7c-4.4,1.5-8.3-2-10.9-5.2   c-1.3-5.1,3.6-9.7,8.6-9.3c2.8,1.1,4.8,3.5,6.9,5.5c2.8-3.3,0.7-7.6-1.7-10.4c-2.6-2.8-4.5-6.6-8.3-7.9c-5.1-1.6-10.4,0.4-14.6,3.4   c-5.6,3.8-11,8.8-12.8,15.5c-1.8,5.8-0.2,12,2.2,17.3c4.8,10.2,14,18.9,25.4,20.8c6,1.6,12.3,0.2,18.1-1.7c9-3.4,17-9.2,23.6-16.2   c8.7-8.4,13-20.6,12.6-32.6c-0.8-10.2-3.9-20.2-8.7-29.2c-7.5-15.5-22.1-26.8-37.9-32.9c-19.9-7.6-42.5-5.1-61.4,4.1   c-20.5,10-38.1,26.3-48.7,46.6c-5.7,10.6-9,22.4-11.2,34.1c12.1,15.9,18.4,35.7,20,55.4c0.2,4,0.8,8,0.9,12   c-0.2,22.6-3.7,45.6-14.4,65.8c30.4,7.4,56.8,27.7,73.9,53.6c13.3-15.4,32.1-26.2,52.4-29.1c7.7-0.7,15.6-0.3,22.9,2.5   c12.5,4.5,22.4,14.4,29,25.8c8.3,12.6,9,29.4,2.6,42.9c-7,15-25.9,23.4-41.6,18.4c-7.9-3.3-14.3-10.2-16.1-18.7   c-1.3-6.2-1.5-13.7,3.1-18.6c5.7-6,16.3-8,22.8-2.3c4,3.2,5.6,9.6,2.5,13.9c-1.5,2-4,2.8-6.3,3.6c-2-0.5-3.5-2-4.8-3.5   c-0.6-2.7,1.4-5.1,4.2-5c2.7-0.2,3.4,2.9,4.6,4.7c2.7-3.3,0.4-7.4-1.3-10.5c-2.2-3.2-6.7-3-9.9-1.8c-4.4,1.2-8.8,4.1-10.2,8.7   c-0.9,4.8-0.4,9.9,1.9,14.2c2.9,5.8,9.2,9.8,15.8,9.8c8,0.1,16.1-2.9,22.2-8.1c6.9-6.7,8.9-17.2,7.4-26.5   c-2-17.7-18-32.2-35.5-33.8c-23-2.4-46.8,10.8-56.8,31.6c8.5,22.5,13.3,46.4,13,70.4c0,21.3-4.8,42.6-14.5,61.6   c-8,15.8-19.4,29.7-32.7,41.3c-17.8,15.5-38.8,26.9-60.7,35.5c-35.9,13.7-75.2,20.9-113.4,14.1c0.3,23.5-5.6,47.3-18.2,67.2   c-10,16-24.4,28.8-40.8,38c-16.1,9.2-34.3,15.7-53,15.3c-20.4,0.3-40.4-8.2-55.5-21.7c-8.4-6.9-14.8-16-19.3-25.8   c-8.1-16.9-12.7-36.8-6.8-55.1c3.9-11.8,13-21.2,23.6-27.3c9.4-5.7,20.3-9.3,31.4-8.7c17.2,1.1,34.9,12.8,38.5,30.4   c2.1,7.7,0.4,16.3-4.7,22.5c-3.5,4.1-7.6,8-12.7,10c-4.6,1.5-10.3,1.4-14-2.1c-3.3-3-7.1-6.4-7.2-11.2c-0.3-4.2,2.9-7.5,6.2-9.6   c3.2-1.9,7.2-3.5,10.8-1.8c5.2,1.8,8.2,6.9,10.1,11.7c2.9-1.1,4.1-4.5,4.5-7.3c0.2-6.7-3.9-12.4-7.1-18   c-2.9-6.8-9.6-12.2-17.2-12.2c-8.8-0.7-17.2,3.1-24.8,7.2c-5.9,3.5-11.8,7.3-15.9,12.9c-6.6,8.3-9,19.6-7.2,30   c1.4,10.1,5.5,19.7,10.8,28.3c10.7,17.2,31,27.8,51.2,26.8c19.7-0.9,38.2-9.7,54.2-20.7c14-9.7,25-23.9,30-40.3   c6.3-20.1,4.3-41.9-1.3-61.9c-2.8-9.7-6.3-19.2-10.9-28.1c-11-17.8-25.8-33.2-43.6-44.3c-16.4-10.3-35.2-16.7-54.4-18.7   c-20.2-2.5-40.7,0.3-60.1,5.9c-37.9,11.6-72.7,34.5-96.6,66.3c-7.5,9.8-14,20.5-19.2,31.7c28,25,49.8,56.6,63.5,91.5   c17.7,44.5,23.3,92.9,22.5,140.5c-1.5,41.8-7.6,83.7-20.1,123.8c-10.8,34.2-26.2,67.5-49.3,95.2c-38.7,0-77.3,0-116,0   c14.5-11.2,27.2-24.4,39-38.3c27.2-32.4,47.6-70.6,58.7-111.4c4.9-18,7.9-36.5,9.2-55c2.2-38.7-1.9-78-14-115   c-12.8-38.8-35-75-66.2-101.6c-38-33.1-89-50.3-139.3-49c-21.1,2-41.9,7.2-61.7,14.7c-18.9,7.3-37.1,17.3-52.3,30.8   c-16.3,14.1-28.9,32.6-35.4,53.2c-6.8,20.5-6.9,42.4-5.3,63.6c1.8,19.1,6.2,38.3,15.3,55.3c8.9,16.9,22.8,31.3,40,39.8   c12.5,6.2,26.3,9.7,40.3,9.8c20.4-0.4,41.5-4.6,58.5-16.4c12.1-8.2,20.5-21.3,23.4-35.6c1.2-5.3,1.3-10.7,1.8-16   c-0.6-9-0.7-18.2-3-27c-2.2-9.4-6.1-18.8-13.5-25.3c-7-6.1-16.9-8.8-26-6.8c-9.1,0-18.7-0.2-26.9,4.4c-4.9,2.5-8.5,7.6-8.7,13.2   c8.1-1.1,17.2-1.5,24.3,3.4c5.1,3.6,6.7,10.1,7,16c-0.5,5.7-1.4,12.3-6.4,15.8c-5.9,4-13.5,2.6-19.9,1c-7.2-1.5-13.5-6.9-15.6-14   c-1.3-3.3-1.1-6.8-1.5-10.2c0.4-10.2,2.5-20.8,8.8-29.2c5.3-7.4,13.4-12.3,22-14.9c9.5-2.7,19.9-3.8,29.5-1   c17.7,4.4,34.1,15.4,43.6,31.2c9.7,15.6,12.7,34.3,12,52.4c-0.1,18.5-6.8,37.1-19.5,50.8c-12.4,13.5-29.2,22-46.5,27.3   c-11.6,3.4-23.5,5.6-35.5,6.4c-11.6,1.6-23.3-0.1-34.7-2.5c-19.5-4.4-38.1-12.9-54-25c-17.6-13.4-31.2-31.6-39.9-51.9   c-7-16.5-11-34.1-12.7-51.9c-1-6-0.4-12.2-1.1-18.3c-0.4-22.3,2.8-44.8,10.5-65.8c1-3.7,3.8-7.1,2.9-11.2   c-7.7-45.3-25.5-89-52.6-126.2c-30.9-42.8-74.4-75.4-122.5-96.5c-31.4-13.6-65.5-21.8-99.8-21.6c-25.9-0.1-51.8,4.7-75.9,14.3   c-35.9,14.2-66.9,39.3-89.9,70.1c-7.8,9.6-12.6,21.1-17.5,32.3C259,897.2,252.1,924.9,252,953c0.4,16.8,3.2,33.7,9.8,49.2   c9.1,22,25.5,40.6,45,54.1c20.8,14.4,43.9,26.4,69.1,30.5c18.4,3,37.8,0.8,54.6-7.4c10.6-5,20.2-12.2,28.3-20.7   c9.1-10.2,16-22.4,21-35.1c3.8-10.1,6.6-20.8,6.2-31.6c0.5-12.7-4.1-25.3-11.8-35.2c-9.4-11.8-22.4-20-35.8-26.5   c-9.7-4.3-20.6-7.7-31.2-5.3c-9.9,1.8-18,9.3-22,18.4c-4.2,6.1-8.6,12.2-10.5,19.4c-2.1,6.7-1,15,5,19.4   c3.6-7.4,8.6-15.2,16.7-18.1c7-2.4,14.4,1,19.7,5.5c4.5,3.6,7.8,9.5,6.2,15.3c-1.2,5.9-5.9,10.1-10.3,13.8   c-4.9,4.8-12.3,6.7-18.9,5.1c-9.3-2.1-16.2-9.1-22.3-15.9c-5.3-6.5-8.8-14.6-8.9-23.1c-0.7-12.5,4.3-24.6,11.4-34.5   c7.7-9.1,17.8-15.9,28.8-20.3c16.8-6.6,35.9-5.8,52.6,0.8c12.5,5,24,12.3,34,21.3c14.9,14,24.1,34.1,23.6,54.6   c0.7,20-5.3,39.6-13.8,57.5c-5.9,12.2-12.8,24-22.2,33.8c-20.7,21.7-48.5,37-78.3,41.3c-9.1,1-18.3,2.2-27.4,0.9   c-24.8-1.7-48.7-10.6-70-23c-18.7-10.9-36.2-24.2-50.2-40.8c-20.8-23.9-34.3-53.8-39.6-85c-1.3-6.5-1.9-13.1-2.6-19.6   c0-8.4-1.3-16.7-0.4-25c0.8-32,8.4-63.8,21.7-92.9c-18.4-2-35.9-8.6-52.1-17.3c-20.2-11.2-38.8-26.3-50.9-46.3   c-8.5-14.3-12.8-31-12.3-47.5c0.9-20.2,7.8-39.8,18.2-57c7.8-13.7,20.8-23.8,34.9-30.3c10.6-4.8,22.3-7.4,34-6.8   c18.4,0.9,35.6,10.9,47.3,24.8c7.7,9,11.9,20.9,11.6,32.8c-0.8,9.8-3.6,19.7-9.8,27.5c-6.6,8.1-15.1,15.3-25.6,17.6   c-9.1,2-18.6-1.7-25.4-7.8c-6.1-5.1-10.6-12.7-10.3-20.8c-0.2-7.5,3.1-15.4,9.8-19.3c6.8-4.3,16.6-1.8,21,4.8   c1.9,4.5-0.2,10.3-4.5,12.5c-3.9,0.3-7.9-2.6-9-6.3c-0.2-3.3,2-6.1,3.9-8.6c-1.2-0.6-2.5-1.4-3.9-0.8c-4.4,1.2-6.7,5.4-9.3,8.7   c-2,2.7-3.5,6.3-2.3,9.6c2.1,7.1,8.3,12,14.4,15.7c6.7,4.1,15.6,3.8,22.1-0.3c10.6-6.4,18.8-18.1,18.4-30.9   c0.2-8.4-3.6-16.2-8.6-22.7c-5.9-7-13-12.9-21.1-17.1c-7.8-3.9-16.8-5.9-25.5-4.3c-10.2,1.3-19.6,6.3-27.7,12.4   c-7.1,5.5-14.1,11.7-18.3,19.8c-11.6,19.6-13.5,44.5-4.7,65.5c7.6,18.9,22.2,34.4,39.1,45.6c19.2,12.8,42.9,18.3,65.8,16.5   c22.1-28.8,47.8-54.9,77.3-76c32.7-23.5,70.4-40.7,110.4-46.9c23.3-3.9,47.2-3.6,70.6-0.7c17.8-28.3,27-61.8,26.3-95.2   c-1.1-30.2-8.3-60.7-24.2-86.7c-11.3-18.5-27-34.5-46-45.1c-14.2-8.2-30.3-13.1-46.6-15.1c-10.6-1-21.5-1.8-32,0.7   c-18.4,4.1-36.4,11.4-51.6,22.7c-13.6,10.2-24.5,24.6-28.7,41.3c-3.9,14.7-2.6,30.2,0.4,45c3.5,16.1,10.8,32.4,24.3,42.5   c11,8.5,25.4,12.4,39.3,10.8c13.1-1.5,26.8-6,36-16c6.5-7,9.3-16.8,9.1-26.1c-0.8-9.2-2-18.8-6.9-26.9c-2.5-3.9-6.2-7.2-10.6-8.8   c-2.2-0.3-4.4-1.2-6.7-0.8c-5.7,1-11.7,0.7-17.1,3c-4.1,1.5-7.6,5.3-7.8,9.8c4.7-1,9.8-1.6,14.3,0.7c4.9,2.6,6.2,9,5.1,14.1   c-0.3,3.8-3.6,7-7.4,7.2c-5,0.3-10.6-0.1-14.4-3.8c-3.8-3.7-4.7-9.4-4.4-14.5c0.6-5.9,2-12.2,6.2-16.7c6.8-7.7,17.8-10.5,27.7-9.2   c10.1,1.7,19.8,6.8,26.3,14.8c8.3,9.7,11.1,22.8,11.4,35.3c0.1,11.4-3.6,22.9-11.4,31.4c-10.1,11.4-24.9,17.5-39.5,20.7   c-24.8,5.9-52.1-2-70.9-19c-14.4-13.2-22.9-31.8-26.2-50.9c-4.8-25-2.1-51.8,10.5-74.2c17.8-31.9,50.5-54,85.6-62.8   c-9.1-15-13.3-32.7-12.8-50.2c-0.3-12,3-24.2,9.8-34.2c10.9-15.9,30.3-23.9,49.1-25.4c12.7-0.6,25.4,4.5,34.7,13   c12.5,11.6,15.6,31.9,7.7,46.9c-5.1,8.9-15.3,14.5-25.5,14.2c-6.1-0.4-12.6-1.7-17.3-6c-5.6-5.5-6.4-14.5-3.7-21.6   c2.9-6.4,11.1-11.2,17.9-7.9c5,1.9,7.6,10.1,3,13.8c-2.4,0.7-4.9,1.1-6.7-1c0-1.6-0.1-3.2,0.1-4.8c1.6-1.8,4-2.3,6.3-2.3   c-1.6-3.7-6.1-3.1-9.4-2.9c-3.8-0.2-6.3,3.6-6.9,6.9c-0.3,5.3-0.7,11.6,3.6,15.5c8.1,7.2,22.3,6,29-2.6c6.1-7.3,6.1-17.5,4.8-26.4   c-2-10.1-10.4-17.7-20-20.9c-7.9-2.7-16.5-3.8-24.6-1.5c-14.1,3.4-25.9,14.3-31.1,27.7c-8.7,22.5-3.5,50,13.8,67.1   c35.9-1,72.8,6.2,104,24.4c25.8,14.9,46.3,38.2,58.5,65.3c9,19.7,14.2,41,16.6,62.4c0.3,1.9-0.2,4.2,1.1,5.8   c26.9,23.3,61,38.6,96.6,41.6c8.4,1.3,16.8,0.5,25.3,0.7c33.1-1.3,66.7-11.3,92.5-32.7c25.7-20.6,41.8-52,44.7-84.7   c0.6-4.7,1.3-9.5,0.4-14.2c-2.1-19.9-7.5-39.7-18-56.9c-8-13.3-19.9-24.6-34.4-30.6c-7.6-3.4-15.8-5-23.9-5.9   c-10.5,0-21.2-0.7-31.5,1.6c-15.5,2.7-30.7,10.1-40.3,22.8c-9.2,12.1-13.2,28.1-10.6,43c1.3,12.2,6.1,24.9,16,32.7   c9.7,7.3,22.5,8.6,34.2,7c7.2-0.7,14.7-2.8,19.8-8.2c3.3-3.4,5.3-8.2,5.1-13c-0.2-6.5,0.9-13.5-2.5-19.4c-1.4-3-4.5-4.6-7.5-5.4   c0.1,4.5,0.8,9.3-1.7,13.3c-2.5,5.1-9.1,6.2-14.1,4.8c-4-0.5-7.5-4-7.3-8.1c-0.2-6.6,2.6-14.7,9.7-16.7c6.4-1.5,13.2-0.4,19.2,2.3   c7.2,3.3,12,10.5,13.5,18.1c2.8,11-1.3,22.6-8,31.3c-7.1,9.7-18.8,15-30.4,16.5c-10,0.7-20.5,0.7-29.9-3.5   c-10.9-4.4-19.2-13.7-24.1-24.2c-6.7-14.3-8.9-30.4-7.8-46.1c2.8-21.6,14.1-42.2,31.8-55.2c14.5-10.8,32.6-15.7,50.5-16.8   c15.4-19.2,23.9-44.2,21.8-68.9c-1.2-20.3-8.2-40.9-22.1-56.1c-14.1-15.9-35.9-24.2-57-22.8c-13.5,2.3-26.9,7.4-37.3,16.5   c-8.4,7.3-13.7,18-14,29.1c-0.3,11.5,1.7,23.6,8.1,33.3c6.7,10.1,19.6,15.8,31.6,13.3c7.6-1.3,15.6-4.5,19.9-11.3   c3-4.4,3.4-9.9,2.9-15c-0.3-5.1-1.7-10.3-4.9-14.3c-2.9-3.4-7.8-4.2-12-3.1c-4.2,0.1-9.8,1.5-10.5,6.4c3.2-0.1,6.9-0.8,9.4,1.7   c2.4,2.7,2.3,6.8,0.5,9.8c-0.9,0.5-1.7,1-2.5,1.5c-3.1,0-6.5-0.1-9-2.3c-3.1-3.7-2.7-9.1-1.2-13.4c1.6-5.3,6.9-8.4,12.1-9.4   c8.5-1.2,17.3,2.9,22.1,9.9c4,5.8,5.4,13.1,5,20.1c0,6.6-3,12.9-7.5,17.5c-8.3,7.6-19.7,10.7-30.7,11.5   c-10.7-0.6-21.5-4.2-29.6-11.3c-10.5-9.1-15.7-23.2-16.5-36.8c-1.1-10.2,0.4-20.8,4.6-30.2c9.3-20.4,29.3-34.7,50.8-39.9   c-6.1-11.3-8.5-24.7-5.9-37.3c1.9-8.4,7.7-15.8,15.3-19.9c7.1-3.7,15.2-5.6,23.2-4.4c8.9,1.9,17.5,8,19.7,17.2   c1.1,5.6,1.1,12.1-2.2,17.1c-4.8,8-17.3,9.9-24.1,3.5c-3.2-2.9-2.4-7.5-2.1-11.3c1.8-3.7,6.2-6.8,10.3-5c2.4,0.8,2.9,3.4,3.4,5.5   c-0.2,0.5-0.7,1.4-0.9,1.9c-1,0.5-2,0.9-3,1.4c-2.6-1.9-1.4-6,2-5.7c-1.2-2.2-3.9-1.4-6-1.7c-3.6,2.1-3.3,6.7-2.9,10.3   c3.5,6.6,13.8,6.9,18.3,1.2c3.9-4.7,3.8-11.5,2.3-17.1c-2.6-7.1-10.3-10.5-17.4-11.3c-9.1-0.7-18.4,4.4-22.9,12.4   c-7.7,13.1-5.1,31.4,5.8,42c13.9-0.5,28,1.6,41.3,6.1c16.1,5.3,30.8,15.4,40.9,29c14.7,19.5,19.3,44.5,19.7,68.4   c-0.6,21-3.6,42.7-13.8,61.4c-0.4,1-1.6,2.1-1,3.2c18.3,3.9,35.3,13.5,48.8,26.4c11.5,10.9,20.6,24.2,27.5,38.4   c6.3,13.5,11.2,27.9,12.7,42.8c1.5-0.3,3-0.8,4.3-1.4c6.2-2.8,13-4.3,19.7-5.5c7.9-0.9,15.8-2.1,23.7-0.8   c13.2,1,26.5,5.2,36.6,13.9c11,9.4,17,23.4,19.1,37.5c0.8,7.7,1.7,15.6-0.6,23.1c-3.9,13.4-13.1,25.9-26.4,31   c-7.2,2.9-15.2,2.6-22.7,1.7c-9.4-1.7-18.3-7.5-22.2-16.4c-4.6-9-3.4-20.2,1.7-28.8c2.4-3.7,6.1-6.6,10.4-7.5   c5.5-0.6,11.5-0.5,16.1,3c5.9,4.1,8.4,13.7,3.4,19.4c-2.5,2.9-6.6,2.7-10.1,2.7c-3-1.8-3.8-5.9-2.2-8.9c2.2-0.2,5.1-1,6.7,1.2   c0.9,1.7,0.7,3.7,0.8,5.6c4.3-1.5,3.4-6.8,4.2-10.3c-1.2-3.5-4.3-6.2-8-6.7c-5.5-1.6-12.2-0.6-16,4.1c-6.3,8.2-5.9,21.3,2,28.4   c7.5,6.4,18.1,7.7,27.6,6.4c11-2.2,18.7-11.8,22-22c6.8-17.3-0.3-38.2-15-49.1c-9.8-7.5-22.2-10.8-34.4-11.5   c-14.5-0.4-29,4.5-40.4,13.4c-2.7,30.4-10.6,60.7-26,87.2c-13.8,24.1-34.4,44.3-59.2,56.9c-15.8,8.1-32.9,13.3-50.4,16.1   c-17.5,3.1-35.4,2.9-53.1,2.5c-35.8-2.6-71.6-10.8-103.4-27.8c-3.1,23.3-8.8,46.5-19.4,67.7c59,21.3,111.5,58.2,155.5,102.5   c35.2,36,65.8,78,81.1,126.5c28.7-19.8,61.5-33.8,95.9-39.5c-9.5-17.6-14-37.4-15.8-57.2c-1.1-18.6-0.2-37.6,6-55.3   c6-18,17.7-34,33.5-44.6c20.2-13.6,45.1-19.4,69.3-18.8c22.4,2.3,44.1,14,57.2,32.5c11.2,15.7,13.5,36.4,9,54.9   c-2.7,10.7-8.6,20.9-17.7,27.4c-6.8,5.3-15.2,8.3-23.7,9.6c-8.4,0.7-16.8-0.8-24.7-3.7c-9.2-3.5-17.4-11-19.3-21   c-1.8-9.5-0.4-20.2,5.8-27.9c6.2-7.3,17-11,26.1-7.2c7.2,2.8,10.8,11.7,8.7,18.8c-1.1,4.5-6.2,5.8-10.2,5.9   c-6.2-0.9-6.7-10.8-1.3-13.2c2.4-1.4,5.2-0.6,7.7-0.8c-0.6-4-4.7-6-8.4-5.9c-4,0.1-8.4-1.3-12.1,0.9c-4.8,2.7-6.6,8.4-7.3,13.5   c-1.3,7.7-0.5,16.7,5.4,22.5c5.5,6.1,14,8,21.9,8.9c10.2,0.6,20.6-3.8,27.2-11.6c6.7-8.2,9.6-19,9.9-29.5   c0.7-8.6-0.4-17.6-4.3-25.4c-3.9-8-10.4-14.5-17.9-19.1c-10.5-6.4-22.6-9.9-34.8-11.1c-19,0-38.1,7-51.9,20.2   c-17.3,16.3-25.8,40.3-26.4,63.7c-1.7,26,7.6,52.2,24.3,72c22.8,0.5,45.5,4.1,67.7,9c21.8,5.2,43.2,12.2,63.5,21.8   c5.9,2.6,11.4,6,17.3,8.5c19.2-33.2,47.6-60.3,78.9-82.1c18.4-12.5,38.2-23.2,59.3-30.5c29.9-10.6,62.9-13.4,93.7-5.2   c1.3,0.2,2.9,1.1,4-0.1c16.4-12.4,28.9-30,34.5-49.8c5.6-19.6,6.2-41.2-1.6-60.2c-6.9-17.4-21.4-31.5-38.8-38.1   c-11.8-5-25.2-4.8-37.6-2.3c-10.5,2.3-20.9,7.6-27.2,16.6c-6,8.2-8.4,18.4-9.2,28.4c-0.7,4,0.3,7.9,0.7,11.8   c2,10.9,10.1,20.6,20.8,23.7c8.1,2.4,17.4,2.8,25-1.5c4.6-2.9,8-7.7,9.2-13c1.5-6.2,2.8-13.6-1.4-19c-2.7-3.8-7.7-3.9-11.8-4.9   c-3.4-0.9-7,0.5-8.8,3.4c3.3,0.8,6.9,1.8,8.9,4.8c0.3,3.7-0.5,8.9-5,9.5c-3.2-0.6-6.6-2-8.2-4.9c-2-3.4-0.1-7.4,1.3-10.6   c3.2-6.7,12-8.9,18.6-6.4c7.4,2.6,13.4,9.3,15,17c1.4,9.8-0.5,20.8-7.9,27.9c-6.4,6.2-15.6,7.9-24.1,8.1c-5.8-0.6-11.8-1-17.2-3.5   c-10.2-4.4-18.8-12.4-23.4-22.5c-4-9.2-5-19.6-3.1-29.5c-5.8-6.6-12.5-12.4-20.6-15.8c-15.7-6.9-35.2-6.8-49.6,3.1   c-9.6,6.6-15.7,17.7-16.6,29.3c0.5,5.8,1.1,11.7,3.6,17c3.1,7.2,9.8,12.9,17.7,14c7.3,1.7,15.8,0.9,21.6-4.1   c6.4-5.5,7.9-15.5,3.7-22.7c-2.7-4.3-8-5.9-12.8-5.4c-3.7-0.5-7.6,2.2-7.9,6c0,2.7-1,6.4,2.3,7.5c0.3-1.4,0.6-2.7,0.9-4.1   c2.3-1.9,5-1.2,7,0.6c-0.2,2.5-1.1,6.3-4.2,6.2c-4.2,0.5-8.7-2.7-9-7c-0.9-5.9,3.5-11.9,9.2-13.3c5.1-1.8,11-0.4,15.4,2.6   c4.3,3.4,5.6,9,6.3,14.2c0.8,10.5-5.5,21.3-15.3,25.2c-12.7,4.9-28.4,1.3-37.4-9c-6.9-7.4-10.3-17.6-10.6-27.6   c-6.7,2-14.2,1.9-20.7-1c-10.7-4.8-13.8-21.2-5-29.1c5.1-5.1,15.2-4.2,18.5,2.5c1.5,4.1,0.4,9.1-3.5,11.5c-2.7,0-5.9,0-7.2-2.7   c-1.4-1.7-0.4-3.6,0.4-5.2c1.3-0.1,2.6-0.2,3.9-0.2c0,1.1,0,2.2,0,3.3c-1.4-0.2-2.4-1-3-2.4c-1.7,1.8-0.7,3.9,1,5.2   c3.1,0.8,6.8-0.4,7.1-4c1.7-5.9-5.2-9.4-10.1-8.7c-3.6,0.8-6.2,3.7-7.6,7c-2.5,6.1,0.3,13.8,6,17c6.1,3.8,14.2,3.6,20.6,0.3   c2.3-10.8,6.5-21.3,13.7-29.7c10.8-12.8,28.8-17.6,45-15.5c13,1.4,25.9,5.4,36.8,12.8c2,1.2,3.5,3.2,5.7,3.9   c4.6-9.6,11.7-17.9,20.6-23.6c-14.7-9.9-24.7-25.3-31-41.6c-5.5-14.7-7.7-31.8-1.1-46.5c-2-19.9-10.5-39.3-25.2-53.1   c-12.8-12.1-29.2-21-46.9-22.8c-19.9-2.2-40.4,7.2-52.4,23.1c-5.7,8.8-9.5,18.9-10.5,29.3c-0.6,9.4,2.4,19.2,9.1,26   c6.7,7.2,15.3,12.9,25,15c5,0.4,10.3,0.6,14.9-1.6c9-3.8,15.3-12.7,16.9-22.2c1.3-7.5-3.4-14.5-9.7-18.3c-4.3-3.1-10.8-5.8-15.5-2   c-2.9,3-5.6,6.5-6.6,10.7c0.4,1,0.7,2.1,1.1,3.1c1.6-1.6,3.1-3.3,4.9-4.6c1.3,0,2.6,0,3.9,0c2.4,1.7,4.6,4,3.9,7.1   c-1.8,1.7-3.5,4.1-6.1,4.1c-5.1,0.7-9-4.2-10.4-8.6c-1.4-3.2,0.1-6.7,1.4-9.6c2.4-4.7,7.3-7.4,12.2-8.8c9.2-1.9,18.6,3,24.2,10.3   c4.8,6.1,5.2,14.7,2.8,21.9c-2.8,8.5-7.9,16.5-15.5,21.3c-8.4,5.7-19,7.8-28.9,5.7c-5.9-1.3-11.5-4-16.5-7.2   c-9.9,2.9-19.2,8.5-25.4,16.8c-6,8-10.2,17.8-10,28c0,14.8,11.4,29.1,26.3,31.5c7.2,1.6,15.6,0,20.6-5.7c4.4-5.1,7.9-11.8,7.1-18.8   c-1.3-8.1-9.8-14.3-17.8-12.9c-4.7,1.3-7.6,6.1-8.5,10.6c-0.9,5.1,5.3,8,9.6,7.3c-1.1-1.1-2.1-2.1-3.2-3.1c0-0.6-0.1-1.9-0.1-2.5   c1-0.9,2-1.8,3-2.7c1.6,1.3,3.2,2.7,3.9,4.7c-1.2,2.8-3.4,6-6.8,5.7c-3.2,0.4-6.2-1.7-7.8-4.4c-5.2-8.1,2.2-20.6,11.8-19.9   c6.7,0.1,13.4,3.5,17.2,9c4,5.1,4.7,12,3.4,18.1c-2.7,10-10.5,18.8-20.7,21.3c-7.9,1.9-16.5,1.3-24.1-1.9   c-1.2,7.2-5,14.6-11.8,17.9c-8.2,3.4-20.5-1.4-21.1-11.2c-0.8-4.8,2.5-9.1,6.7-11.1c5-1,10.9,3,9.4,8.6c-0.8,0.8-1.6,1.7-2.4,2.6   c-1.5,0-2.9,0-4.3,0c-1.7-1.9-1.3-3.9,0.7-5.3c0.5,0.6,0.9,1.3,1.4,1.9c-0.7,0.8-1.4,1.6-2.1,2.5c1.9,0.1,4,0,4.9-2   c1.8-2.4-1-4.5-2.4-6.2c-1.8-0.3-3.6-0.2-5.4,0.2c-2.2,2.1-4.6,4.6-4.4,7.8c0.9,6.4,8.1,11.3,14.4,9.3c7.5-2.1,11.9-10.2,11.7-17.7   c-10.3-7.3-18.8-18-21-30.6c-0.7-7.5-0.4-15.3,2.6-22.4c6.2-15.2,17.8-28.5,32.7-35.8c-7.2-8.8-11.5-20.1-11.5-31.5   c-0.6-12.2,2.7-24.3,8.3-35c-10.2-2.1-19.6-8.2-25.7-16.6c-5.7-7.7-6.1-18.4-2-26.9c2.2-4.6,4.9-9.4,9.5-11.9   c5.3-3.3,12.1-5.1,18.1-2.8c5.2,1.9,9.6,6.1,11.5,11.3c2.5,7.6-2.7,16.4-10.6,17.8c-6.1,0.5-11.2-6-9-11.9c1.9-2.5,5-4.1,7.8-2   c0.4,0.8,0.9,1.6,1.3,2.4c-0.9,0.9-1.2,3-2.9,2.5c-1.9-1-1.3-3.2-1-4.9c-1.9,1-4.2,2.4-4.3,4.8c0.6,2.9,3.1,4.7,5.5,6.1   c1.3,0,2.6,0,3.9,0c3.4-1.8,6.8-4.8,6.7-8.9c0.5-5.6-4.2-9.9-8.5-12.6c-5.8-3.2-12.6-0.1-17.2,3.8c-6.3,5.7-8.2,15.4-5.1,23.2   c4.4,11.1,16.2,18.7,28.1,18.6c13.6-15.6,32-27.8,52.7-30.7c11.3-1.2,22.8-0.1,33.4,4c19.1,7.2,35.3,20.5,48.2,36.2   c7.6,9.5,14.3,20.1,17.7,31.9c5.6-2.7,10.5-6.7,16.4-8.9c13.1-5.4,28.6-4,40.9,2.8c13.7,7.6,21,24.1,19.2,39.4   c-1.9,10.9-10.5,20.5-21.4,23c-6.3,1.4-13.4,1.7-19-1.9c-8.5-6-11.5-20.1-3.4-27.6c3.1-3.4,8.1-4.1,12.4-3   c3.6,1.9,6.2,5.9,5.7,10.1c-1.4,1.5-3,2.7-4.8,3.7c-2.9-0.2-4.8-3-4.3-5.8c0.7-2.2,2.9-3,4.8-3.8c-2.3-3.3-6.5-1.3-9.4-0.2   c-3.6,1.2-5.1,5.4-4.4,8.9c0.7,4.2,2.2,8.6,5.3,11.7c5.1,4.5,12.8,3.9,18.8,1.4c7.4-2.8,12.3-10.5,12.4-18.3   c0-11.6-5.2-24.1-15.9-29.7c-9.1-4.2-19.7-4-29.2-1.5c-16.5,5.4-28.6,21.2-30.1,38.4c-1.7,19.2,6.1,39.2,20.4,52.2   c5.8,5.5,12.8,9.5,20.1,12.6c8.6-2.2,17.5-3.3,26.4-2.6c-1.9-5.3-1-11.1-1.1-16.6c1.3-9.3,4.2-18.9,11-25.7   c5.9-6.1,14.6-8.7,23-8.7c5.9,0.3,12.1,0.9,17,4.5c7.2,4.5,12.3,12.7,11.5,21.3c-0.4,5-2.2,10.1-5.8,13.7c-6.6,7.2-20.2,5.7-24.8-3   c-1.8-3.2-0.6-6.8,0.8-9.8c2.2-4.1,8.1-5.7,11.8-2.8c2,1.4,1.7,4.3,1.2,6.4c-0.7,2.1-3.2,1.2-4.8,1.3c0-1.3,0-2.7,0-4   c1.4-0.1,2.8-0.2,4.3-0.2c-1.2-2.6-4.7-3.8-7.3-2.7c-2.7,1.7-3.1,5.1-3.9,7.9c1.3,7.1,10.7,10.5,16.6,6.8   c5.5-3.9,8.1-11.2,7.1-17.8c-1.4-5.8-6.2-10.1-11.3-12.7c-6.9-3.7-15.5-2.9-22.1,1c-8.2,4.7-13.1,13.8-14.6,22.9   c-1.4,6.3-0.1,12.9,2.1,18.8c0.3,1.2,1.4,2.1,2.6,2.4c18.1,5.9,35.5,15.4,48.3,29.7c12.5,13.5,19.7,31.6,20.7,50   c1.3,22.1-4.1,44.2-13.2,64.3c-5.6,12.7-13.3,24.4-22.7,34.7c32.5,17.5,59.7,44.1,79.6,75c4.3,6.5,7.5,13.7,10.1,21   c0.3,0.9,0.9,1.5,1.9,1.7c15.2,4.6,31,6.8,46.8,7.1c20.7-0.3,41.5-4.2,60.5-12.5c20.4-8.6,39.5-20.9,54.8-37   c13.9-14.6,24.6-32.6,29.7-52.2c6.9-25.5,3.8-53.1-7.2-76.9c-10.9-18.7-25.6-35.8-44.8-46.2c-16.6-9.2-37.1-10.6-54.8-3.8   c-17,6.6-33.8,16.4-44,32c-9.8,14.9-10.5,34.9-2,50.5c4.3,8.3,10.1,16,17.8,21.3c6.8,4.7,15.5,7,23.6,5.1c7.4-1.3,14.2-5,20.6-8.9   c6.5-4.2,12.5-10.9,12.2-19.1c0.1-5.3-3.5-9.4-5.3-14.2c-2.5-5.3-7.8-11.4-14.3-9.2c3.2,5,5.9,12.3,1.3,17.3   c-3.7,3.4-10.2,6-14.6,2.4c-3.2-2.8-3.7-7.3-4.1-11.3c-0.2-4.8,3.1-9.2,7.4-11.2c7.7-3.7,17.5-4.5,24.8,0.5   c7.9,5.5,13.1,15,12.7,24.7c0.6,8.3-1.6,16.8-6.5,23.7c-4.8,7.3-12.3,12.4-20.1,16.1c-8.3,3.8-17.8,6.2-26.9,4.3   c-10.4-1.6-19.6-7.7-26.9-15c-12.1-13.1-21.6-29.8-22-48c-1.9-20,5.3-40.6,19-55.2c13.2-13.7,30.6-23.1,48.8-28.3   c3.9-1.3,8.2-1.4,12.1-2.8c12.3-15.2,19.9-34.3,21.3-53.8c1.3-21.7-3.4-44.2-15.8-62.3c-9.8-14.4-25-25.2-42.2-29   c-9.9-2.2-20.5-2.9-30.3,0.2c-15.2,4.1-30.4,12.5-37.9,27c-5.2,10-5.3,21.8-3,32.6c1.8,9.1,5.7,18.4,13.2,24.3   c5.5,4.6,12.8,7,19.9,7.1c8.9-0.7,18.6-3.3,24.4-10.6c4.7-5.7,4.5-13.6,3.3-20.5c-1.1-5.1-3.2-11-8.5-13c-3.2-1.7-6.7-0.3-10,0   c-3.6,0.2-7.9,2.1-8.3,6.2c2.3,0,4.6,0,6.9,0c5.4,2,6.2,11.4,0.1,12.9c-4,0.5-9.2-1-10.3-5.4c-1.1-4.1-0.5-8.7,1.5-12.5   c2.7-4.4,7.8-7.1,13-7.2c8.7-0.7,17.2,4.4,21.5,11.8c3.1,5.6,4.2,12,3.8,18.3c0,7.8-4.3,15.3-10.5,19.8c-7.4,5.5-16.6,8.1-25.7,8.8   c-12.6,0.5-25.3-4.5-34.2-13.4c-10.9-11.3-14.7-27.7-14.3-43c0.4-11.7,4.4-23.2,11.3-32.6c10.8-14.5,26.9-25,44.6-28.9   c-4.7-8.5-6.9-18.2-7.3-27.9c0.5-7.4,1.9-15.1,6.7-21c5.6-7.4,14.5-11.5,23.5-12.8c9.3-1.9,19.6,2.1,25.5,9.5   c5.7,7.7,6.4,19.8-0.3,27.1c-5.1,5.5-14,6.2-20.4,2.7c-3.2-1.8-4.3-5.3-4.5-8.7c0.4-2.3,0.5-4.9,2.3-6.7c2.6-3.5,8.5-4.1,11.2-0.4   c0.2,1.1,0.4,2.2,0.7,3.3c-0.2,0.6-0.6,1.6-0.8,2.2c-0.7,0.3-2.2,0.8-2.9,1.1c-1-0.8-2-1.7-1.8-3.1c0.5-1.8,2.5-2,4-2.6   c-2-1.3-4.4-1.3-6.7-1.3c-3.2,2.6-3.3,7.2-1.9,10.8c1.9,3.8,6.6,4.9,10.5,4.4c5.4-0.3,9.6-5.2,10.2-10.4c0.6-4.6,0.6-9.8-2.3-13.6   c-3.5-5.1-9.8-7.5-15.8-8.1c-9.9-0.9-19.7,5.3-23.9,14.2c-2.2,4.6-3.5,9.8-3.2,14.9c-0.5,9.2,3.6,18,9.4,24.9   c19-0.2,38.3,3.3,55.3,11.9c5.5-18.8,16.4-35.4,29.1-50c12.4-13.5,26.4-26,42.9-34.1c12.1-6.1,25.6-10,39.2-10c2-0.1,4.1,0.2,6-0.7   c18.2-9.1,34.6-21.8,47.4-37.6c18.3-22.3,28.4-50.7,30.7-79.4c0-9.8,0.4-19.7-1.6-29.4c-3.6-20.8-13.8-40.5-29.1-55   c-7.7-7-16.3-13-25.7-17.4c-6.3-2.9-12.7-5.7-19.7-6.4c-20-3.3-41.7-2-59.5,8.4c-12.1,7.1-20.7,19.1-25.1,32.2   c-3,9.5-5.3,19.4-5.3,29.5c0.5,10.1,3.2,20.4,9.7,28.3c5.7,7.3,13.8,12.7,22.8,15c9.5,2.6,20,3.4,29.2-0.6   c7.3-3,12.6-9.5,15.3-16.8c2.5-7.3,4.4-15.1,2.9-22.8c-1.3-5.3-5.5-10.2-11-11.3c-4.8-1.1-9.5-3.7-14.5-2.4   c-2.5,0.5-4.5,2.2-5.6,4.4c4.3,1,8.9,2.6,11.4,6.6c0.8,4.8-0.3,10.9-5.1,13.1c-3.8,1.4-7.4-1.2-10.4-3.1c-4.5-3-4.7-9.4-2.7-14   c2.2-5.8,6.6-11.2,12.8-13.1c8.2-2.2,17.4-0.4,23.8,5.3c8.9,6.9,13.7,18.4,12.7,29.5c-1.1,9.9-4.3,20.1-11.2,27.5   c-5.6,6.2-13.6,9.7-21.7,11.1c-17.3,2.4-36.1-1-50-12.1c-9.7-7.2-17.2-17.3-21.3-28.6c-2.2-6.1-3.1-12.5-3.8-18.9   c-0.6-7.8,1.3-15.4,2.2-23.1c-10-14.4-24.9-25.6-41.8-30.4c-17.8-5.2-37.9-4.9-54.4,4.2c-14.7,8-25.1,23.1-27.8,39.5   c-0.8,9.3,0.3,18.8,3.8,27.5c3.7,9.3,11.8,16.7,21.5,19.4c9.6,2.7,20.6,3.7,29.6-1.4c11.3-6,15.6-21.2,10.8-32.7   c-2.5-5.4-8.1-8.9-13.9-9.5c-4.4-1.1-9.3-0.8-13.1,2c-2.8,2.4-2.9,6.4-3.5,9.8c-0.5,2.6,0.6,5.8,3.4,6.6c0.1-1.2,0.3-2.4,0.4-3.6   c0.3-0.5,0.9-1.6,1.3-2.2c0.5-0.4,1.6-1.2,2.2-1.5c2.9-0.2,6.8,0.9,6.9,4.4c-0.3,2.7-1.8,5-3.7,6.8c-5.5,0.9-12.1-1.6-13.8-7.3   c-2.8-8,2.5-16.8,9.8-20c6.7-3.1,14.7-2,21.2,1.2c6.7,3.3,10.4,10.7,11.1,18c0.2,4.3,0.2,8.6-0.2,12.9c-2.4,12.1-11.5,23-23.4,26.8   c-4.3,1.6-8.9,1.8-13.5,1.7c-13,0.3-26.1-4.9-35.2-14.2c-11-11.8-16.2-28.4-15.5-44.4c-10.4,2.1-22,1.1-31-4.9   c-5.8-3.6-9.2-10.2-10.2-16.8c-0.2-5.9-0.6-12.2,2.7-17.5c3.3-5.1,8.4-9.6,14.7-10.1c6.3-0.4,13.9,2.2,16.4,8.6   c2.6,5.1,0.6,11.7-3.7,15.2c-4,2.7-9.5,1-12.1-2.8c-0.1-2.5-0.9-5.7,1.5-7.5c1.8-0.5,3.7-0.1,5.5,0.2c0,1.2,0,2.4-0.1,3.6   c-2.4,0.9-3.7-1.1-3.8-3.3c-1.6,1.2-2.3,3.3-2,5.3c1.9,2.6,5.1,3.4,8.2,3.3c3.3-2.1,5.7-5.9,5-10c-0.5-4.9-5.3-7.6-9.6-8.6   c-6.3-2.2-12.6,2.5-15.3,8c-4.8,7.9-1.9,18.7,5,24.3c7.2,5.8,17.4,7.9,26.3,5c1.9-0.7,4.4-1.2,4.8-3.5   c5.6-19.5,17.2-38.2,35.1-48.5c17.5-10.1,39-10.4,58.2-5.7c19,4.7,38,13.1,51.7,27.6c5-7.9,10.4-15.6,17.6-21.6   c15.7-13.8,36.3-21.1,56.8-23c9-0.2,18.1-0.7,27.1,0.9c-1.9-9.8-0.6-19.8,1.7-29.4C1661.6,128.9,1666.5,118.3,1674.8,110.8z"
   stroke-width="9.375000e-002"
   stroke="#000000" />
</g>
</svg>
